<svg width="32" height="32" viewBox="0 0 32 32" fill="none" xmlns="http://www.w3.org/2000/svg">
<path fill-rule="evenodd" clip-rule="evenodd" d="M32 16C32 24.8366 24.8366 32 16 32C7.16344 32 0 24.8366 0 16C0 7.16344 7.16344 0 16 0C24.8366 0 32 7.16344 32 16ZM9.53028 11.8066C10.67 11.8066 11.5939 10.8351 11.5939 9.63666C11.5939 8.4382 10.67 7.46667 9.53028 7.46667C8.39058 7.46667 7.46667 8.4382 7.46667 9.63666C7.46667 10.8351 8.39058 11.8066 9.53028 11.8066ZM11.3708 12.921H7.68976V24.5333H11.3708V12.921ZM17.0597 24.5333H13.3787V12.921H17.0597V14.4704C17.5272 13.7136 18.4738 12.6864 20.2946 12.6864C22.7486 12.6864 24.5333 14.3285 24.5333 17.9061V24.5333H20.8523V18.3753C20.8523 16.7918 20.3503 15.7361 19.0118 15.7361C17.9357 15.7361 17.2521 16.5615 17.0597 17.5199V24.5333Z" fill="#2B2A27"/>
</svg>
