<svg width="388" height="286" viewBox="0 0 388 286" fill="none" xmlns="http://www.w3.org/2000/svg">
<g filter="url(#filter0_d_845_219)">
<path d="M55.8615 133.086L52.6927 124.975H79.4607V133.086H73.957V181.421L63.6167 176.738V154.41C62.9496 154.633 62.2825 154.828 61.6154 154.996C60.9483 155.107 60.2534 155.163 59.5306 155.163C58.8635 155.107 58.2798 155.079 57.7795 155.079C57.2791 155.024 56.6398 154.884 55.8615 154.661C55.1388 154.438 54.5829 154.271 54.1937 154.159C53.8602 154.048 53.3042 153.825 52.5259 153.49C51.7476 153.1 51.2195 152.849 50.9415 152.738C50.7192 152.626 50.191 152.348 49.3571 151.902C48.5232 151.456 48.0507 151.205 47.9395 151.149L47.5226 151.483C48.8568 152.375 49.6907 152.933 50.0243 153.156C50.3578 153.379 51.1083 153.964 52.2758 154.912C53.4988 155.804 54.3605 156.584 54.8608 157.253C55.4168 157.867 56.0561 158.731 56.7788 159.846C57.5015 160.905 58.0574 162.02 58.4466 163.191C59.1693 165.253 58.7523 167.428 57.1957 169.713C55.6947 171.999 53.61 173.867 50.9415 175.316C48.3287 176.766 45.5212 177.769 42.5192 178.327C39.5728 178.94 37.0155 178.577 34.8474 177.24C30.0108 174.285 23.0617 166.118 14 152.738L16.0847 151.233C16.1959 151.344 16.7241 152.069 17.6691 153.407C18.6698 154.745 19.3647 155.665 19.7539 156.166C20.1986 156.668 20.9769 157.616 22.0888 159.01C23.2562 160.348 24.1735 161.351 24.8406 162.02C25.5633 162.633 26.5362 163.497 27.7593 164.612C28.9823 165.727 30.0664 166.536 31.0115 167.037C31.9565 167.539 33.0684 168.097 34.347 168.71C35.6257 169.267 36.8209 169.602 37.9328 169.713C39.0446 169.769 40.2677 169.686 41.6019 169.463C42.9361 169.24 44.2148 168.794 45.4378 168.125C48.4954 166.341 49.8575 164.138 49.5239 161.518C49.2459 158.842 47.5504 156.111 44.4372 153.323C41.4907 154.661 38.3497 155.414 35.0141 155.581L30.5111 147.804C36.1816 147.191 40.5734 145.881 43.6867 143.874C46.7999 141.867 47.8561 139.637 46.8554 137.184C45.966 135.01 44.6039 133.644 42.7694 133.086C40.9348 132.473 38.8501 132.612 36.5152 133.504C34.2358 134.396 32.3735 135.233 30.9281 136.013C29.5382 136.794 28.0928 137.686 26.5918 138.689L21.5051 131.414L23.0895 130.243C24.2013 129.518 25.063 128.989 25.6745 128.654C26.286 128.264 27.2311 127.707 28.5098 126.982C29.7884 126.201 30.8725 125.672 31.762 125.393C32.707 125.114 33.7633 124.863 34.9308 124.64C36.0982 124.417 37.1823 124.445 38.1829 124.724C39.1836 124.947 40.1009 125.393 40.9348 126.062C45.8826 130.243 49.6073 133.588 52.109 136.097C53.9436 138.104 54.5551 140.417 53.9436 143.037C53.332 145.658 51.7476 148.055 49.1904 150.229C54.6941 151.121 59.5029 149.504 63.6167 145.379V133.086H55.8615Z" fill="#E6E2D4"/>
<path d="M114.821 176.654V151.065L99.8944 150.814C96.5588 150.759 93.8904 151.762 91.889 153.825C89.9433 155.832 89.1094 158.48 89.3873 161.769C89.7209 165.058 91.3053 168.32 94.1405 171.553C96.531 174.229 98.9215 176.71 101.312 178.996L98.3934 181.421C95.3358 178.745 93.1399 176.794 91.8056 175.567C90.4714 174.341 88.6646 172.612 86.3853 170.382C84.106 168.152 82.4382 166.257 81.382 164.696C80.3257 163.079 79.7142 161.658 79.5474 160.431C79.3806 159.539 79.603 158.145 80.2145 156.25C80.8816 154.355 81.7989 152.403 82.9663 150.396C84.1338 148.389 85.7182 146.633 87.7196 145.128C89.7209 143.623 91.8056 142.87 93.9738 142.87L114.821 143.037V133.003H74.4606V124.975C74.4606 124.975 160.17 124.975 247.436 124.975C248.507 124.975 249.578 124.975 250.649 124.975C283.13 124.975 315.684 124.975 343.975 124.975C343.975 125.58 346.476 124.853 343.975 126.525C341.473 128.198 341.473 129.87 343.975 131.543C343.975 132.113 343.975 132.433 343.975 133.003C323.084 133.003 290.482 133.003 290.482 133.003H282.977H254.947H251.845H197.807H188.801H125.161V181.337L114.821 176.654Z" fill="#E6E2D4"/>
<path d="M146.176 133.003V145.295C150.234 138.884 153.681 135.679 156.516 135.679C157.906 135.679 160.241 136.403 163.521 137.853C166.801 139.247 169.552 140.696 171.776 142.201L166.022 150.564C162.576 147.999 159.573 146.605 157.016 146.382C154.515 146.104 152.513 146.605 151.012 147.888C149.511 149.114 147.899 151.121 146.176 153.909V179.163L135.752 176.821V130.661L146.176 133.003Z" fill="#E6E2D4"/>
<path d="M180.379 147.386L175.876 139.776C179.767 138.773 184.076 137.825 188.801 136.933C193.582 136.041 196.584 135.623 197.807 135.679C199.03 135.734 201.476 137.574 205.146 141.198C208.815 144.766 211.289 147.497 212.567 149.393C213.012 150.062 213.234 152.32 213.234 156.166C213.234 159.957 213.151 164.306 212.984 169.212C212.873 174.118 212.845 177.435 212.901 179.163L202.561 176.738L202.644 172.473C198.141 176.989 194.472 179.246 191.637 179.246C188.968 179.191 185.577 176.654 181.463 171.637C177.349 166.619 175.292 163.023 175.292 160.849C175.292 159.121 176.46 157.532 178.795 156.083C181.129 154.633 183.965 153.518 187.3 152.738C190.691 151.902 193.693 151.26 196.306 150.814C198.919 150.368 201.143 150.062 202.977 149.895L203.061 147.637C203.116 144.961 201.699 143.511 198.808 143.288C196.14 143.121 190.525 144.32 181.963 146.884H181.88L181.797 146.968H181.63L181.546 147.051H181.38L181.296 147.135H181.129L181.046 147.219H180.796L180.712 147.302H180.546L180.462 147.386H180.379ZM184.548 168.375C185.049 169.156 185.994 169.658 187.384 169.881C188.773 170.104 190.858 169.741 193.638 168.794C196.473 167.79 199.531 166.062 202.811 163.609L202.894 156.25C188.218 160.543 182.102 164.585 184.548 168.375Z" fill="#E6E2D4"/>
<path d="M233.97 133.003V142.536C238.918 137.909 243.254 135.707 246.979 135.93C248.758 136.041 251.871 138.271 256.319 142.619C256.686 142.97 257.039 143.311 257.378 143.643C261.198 147.38 263.235 149.966 263.49 151.4C263.587 152.034 263.663 154.16 263.718 157.779C263.789 162.436 263.824 169.564 263.824 179.163L253.483 176.821C253.817 157.7 253.678 147.581 253.067 146.466C252.066 144.571 250.398 144.013 248.063 144.794C245.784 145.518 243.393 146.856 240.892 148.808C238.446 150.759 236.138 153.044 233.97 155.665V179.163L223.13 176.821V130.661L233.97 133.003Z" fill="#E6E2D4"/>
<path d="M282.143 175.149C282.476 175.874 286.396 175.456 293.901 173.895C301.461 172.278 305.492 171.72 305.992 172.222C308.383 174.564 309.939 177.017 310.662 179.581C311.385 182.145 311.301 184.487 310.412 186.605C309.522 188.724 308.216 190.647 306.492 192.375C304.769 194.159 302.684 195.553 300.238 196.557C297.792 197.56 295.318 198.062 292.817 198.062C288.592 198.062 284.339 196.807 280.058 194.299C276.904 192.468 274.68 190.823 273.385 189.365C272.945 188.87 272.612 188.396 272.386 187.943C272.275 187.776 272.303 187.525 272.47 187.191C272.617 186.945 272.871 186.634 273.234 186.259C273.283 186.208 273.334 186.157 273.387 186.104C273.832 185.658 274.304 185.184 274.804 184.682C275.36 184.18 276.083 183.483 276.973 182.591C277.862 181.755 278.696 180.947 279.474 180.166C278.863 179.274 276.695 175.874 272.97 169.964C272.859 169.574 272.775 169.267 272.72 169.044C272.664 168.821 272.803 168.626 273.137 168.459C273.526 168.236 273.915 168.069 274.304 167.957C274.693 167.79 275.249 167.623 275.972 167.456C276.75 167.288 277.473 167.149 278.14 167.037C278.863 166.926 279.724 166.759 280.725 166.536C281.781 166.257 282.754 165.978 283.644 165.699C282.643 165.086 280.725 163.553 277.89 161.1C276.166 159.651 274.86 158.09 273.971 156.417C273.081 154.689 272.636 153.072 272.636 151.567C272.636 150.006 272.887 148.445 273.387 146.884C273.887 145.323 274.665 143.929 275.722 142.703C276.778 141.477 277.89 140.334 279.057 139.274C280.28 138.215 281.587 137.435 282.977 136.933C284.422 136.376 285.756 136.013 286.979 135.846C288.202 135.679 289.37 135.874 290.482 136.431C294.262 138.271 296.93 139.665 298.487 140.612H313.33L315.832 146.466H304.491C311.051 158.118 306.548 166.619 290.982 171.971C289.759 172.361 288.119 172.863 286.062 173.476C283.449 174.313 282.143 174.87 282.143 175.149ZM295.318 144.125C292.983 142.396 290.371 142.675 287.48 144.961C284.644 147.247 282.921 150.062 282.31 153.407C281.754 156.752 282.671 159.539 285.061 161.769C287.341 163.33 289.954 163.051 292.9 160.933C295.902 158.759 297.709 156.083 298.32 152.905C298.987 149.672 297.987 146.745 295.318 144.125ZM282.143 183.762L281.726 183.344L277.973 187.943C282.032 189.727 286.034 190.368 289.981 189.867C293.984 189.365 297.431 188.111 300.322 186.104C303.268 184.152 304.714 182.09 304.658 179.915C304.658 179.525 303.018 179.915 299.738 181.086C296.514 182.313 293.234 183.372 289.898 184.264C286.562 185.156 283.977 184.989 282.143 183.762Z" fill="#E6E2D4"/>
<path d="M329.6 121.118C326.765 119.78 324.652 117.745 323.263 115.013C323.374 114.121 324.208 112.978 325.764 111.584C327.321 110.191 328.572 109.382 329.517 109.159C332.352 110.442 334.437 112.421 335.771 115.097C334.826 117.494 332.769 119.501 329.6 121.118ZM333.659 133.003V179.163L323.235 176.821V130.661L333.659 133.003Z" fill="#E6E2D4"/>
<path d="M282.977 136.933C284.422 136.376 285.756 136.013 286.979 135.846C288.202 135.679 289.37 135.874 290.482 136.431V133.003H282.977V136.933Z" fill="#E6E2D4"/>
<path d="M188.801 136.933C193.582 136.041 196.584 135.623 197.807 135.679V133.003H188.801V136.933Z" fill="#E6E2D4"/>
<path d="M373.995 128.616C373.909 127.5 372.752 126.701 370.933 126.134C369.686 125.745 368.128 125.465 366.392 125.266C358.331 124.342 346.428 125.168 343.975 124.975C343.975 125.58 346.476 124.853 343.975 126.525C346.259 126.525 358.712 125.798 366.335 126.509C368.226 126.686 369.82 126.951 370.888 127.337C371.8 127.668 372.327 128.087 372.327 128.616C372.327 129.175 371.756 129.632 370.775 130.004C369.665 130.425 368.031 130.738 366.103 130.969C358.639 131.866 346.779 131.543 343.975 131.543V133.003C347.105 132.874 358.234 133.317 366.024 132.335C367.806 132.111 369.412 131.812 370.709 131.414C372.805 130.772 374.091 129.873 373.995 128.616Z" fill="#E6E2D4"/>
<path d="M247.436 124.975H250.649C238.104 101.82 232.978 97.9778 229.384 72.5878C225.478 44.992 243.907 28.6855 258.199 22.414C277.866 13.7833 299.352 12.1196 325.764 32.4485C348.037 49.5912 368.471 79.2786 366.392 125.266C368.128 125.465 369.686 125.745 370.933 126.134C372.643 79.4972 350.024 48.8526 327.325 31.1941C302.348 11.7641 278.381 10.0093 257.378 19.9052C241.406 27.4312 223.194 43.2516 227.229 72.5878C230.727 98.0129 234.586 101.845 247.436 124.975Z" fill="#E6E2D4"/>
<path d="M370.709 131.414C369.412 131.812 367.806 132.111 366.024 132.335C364.936 150.915 363.154 165.686 363.154 172.473C363.154 174.106 367.213 174.102 367.324 172.473C367.7 166.955 369.741 151.486 370.709 131.414Z" fill="#E6E2D4"/>
<path d="M257.378 143.643C261.198 147.38 263.235 149.966 263.49 151.4C263.587 152.034 263.663 154.16 263.718 157.779C271.85 178.408 274.684 199.696 263.49 223.11C252.858 245.35 241.352 255.242 219.307 266.176C183.829 283.774 135.752 245.271 135.752 245.271C135.752 245.271 184.345 284.594 220.558 267.849C244.293 256.874 255.08 246.849 266.159 223.11C271.63 211.387 273.685 200.199 273.385 189.365C272.945 188.87 272.612 188.396 272.386 187.943C272.275 187.776 272.303 187.525 272.47 187.191C272.617 186.945 272.871 186.634 273.234 186.259C271.965 167.83 264.096 150.384 254.947 133.003H251.845C253.758 136.545 255.618 140.089 257.378 143.643Z" fill="#E6E2D4"/>
<path d="M370.888 127.337C369.82 126.951 368.226 126.686 366.335 126.509C366.263 128.017 366.185 129.505 366.103 130.969C368.031 130.738 369.665 130.425 370.775 130.004C370.815 129.123 370.852 128.234 370.888 127.337Z" fill="#E6E2D4"/>
</g>
<defs>
<filter id="filter0_d_845_219" x="0.6" y="0.599939" width="386.8" height="284.8" filterUnits="userSpaceOnUse" color-interpolation-filters="sRGB">
<feFlood flood-opacity="0" result="BackgroundImageFix"/>
<feColorMatrix in="SourceAlpha" type="matrix" values="0 0 0 0 0 0 0 0 0 0 0 0 0 0 0 0 0 0 127 0" result="hardAlpha"/>
<feOffset/>
<feGaussianBlur stdDeviation="6.7"/>
<feComposite in2="hardAlpha" operator="out"/>
<feColorMatrix type="matrix" values="0 0 0 0 0 0 0 0 0 0 0 0 0 0 0 0 0 0 0.47 0"/>
<feBlend mode="normal" in2="BackgroundImageFix" result="effect1_dropShadow_845_219"/>
<feBlend mode="normal" in="SourceGraphic" in2="effect1_dropShadow_845_219" result="shape"/>
</filter>
</defs>
</svg>
